<svg width="31" height="16" viewBox="0 0 31 16" fill="none" xmlns="http://www.w3.org/2000/svg">
<g clip-path="url(#clip0_1134_163602)">
<path fill-rule="evenodd" clip-rule="evenodd" d="M7.11546 1.86714L4.61228 6.04196C4.15108 6.80491 3.24068 6.94551 2.44515 7.1341C1.27757 7.40671 0.68092 8.55371 0.68092 9.69043V10.4002C0.499033 10.4002 0.324596 10.4725 0.195984 10.6011C0.0673706 10.7297 -0.00488281 10.9042 -0.00488281 11.086V12.5931C-0.00488281 12.775 0.0673706 12.9494 0.195984 13.078C0.324596 13.2066 0.499033 13.2789 0.68092 13.2789H2.46401C2.46401 12.3445 2.83521 11.4483 3.49596 10.7875C4.15671 10.1268 5.05288 9.75558 5.98732 9.75558C6.92175 9.75558 7.81792 10.1268 8.47867 10.7875C9.13942 11.4483 9.51063 12.3445 9.51063 13.2789H21.2293C21.2293 12.3445 21.6005 11.4483 22.2612 10.7875C22.922 10.1268 23.8181 9.75558 24.7526 9.75558C25.687 9.75558 26.5832 10.1268 27.2439 10.7875C27.9047 11.4483 28.2759 12.3445 28.2759 13.2789H30.059C30.2409 13.2789 30.4153 13.2066 30.5439 13.078C30.6725 12.9494 30.7448 12.775 30.7448 12.5931V11.086C30.7448 10.9042 30.6725 10.7297 30.5439 10.6011C30.4153 10.4725 30.2409 10.4002 30.059 10.4002V1.61853C30.0581 1.20639 29.8939 0.811378 29.6025 0.519944C29.3111 0.22851 28.9161 0.0643824 28.5039 0.0634766H10.4828C9.04943 0.0634766 7.8887 0.577832 7.11546 1.86714ZM24.7526 10.5905C25.2812 10.5905 25.798 10.7473 26.2376 11.041C26.6771 11.3347 27.0197 11.7522 27.222 12.2406C27.4243 12.729 27.4773 13.2664 27.3741 13.7849C27.271 14.3034 27.0164 14.7797 26.6426 15.1535C26.2688 15.5273 25.7925 15.7819 25.274 15.885C24.7556 15.9882 24.2181 15.9352 23.7297 15.7329C23.2413 15.5306 22.8238 15.188 22.5301 14.7484C22.2364 14.3089 22.0797 13.7921 22.0797 13.2635C22.0801 12.5547 22.3619 11.8751 22.863 11.3739C23.3642 10.8728 24.0438 10.591 24.7526 10.5905ZM24.7526 14.3333C24.9642 14.3333 25.171 14.2706 25.347 14.153C25.5229 14.0355 25.66 13.8684 25.741 13.6729C25.822 13.4774 25.8432 13.2623 25.8019 13.0547C25.7606 12.8472 25.6587 12.6566 25.5091 12.507C25.3595 12.3573 25.1688 12.2554 24.9613 12.2142C24.7538 12.1729 24.5387 12.1941 24.3432 12.275C24.1477 12.356 23.9806 12.4931 23.863 12.6691C23.7455 12.845 23.6827 13.0519 23.6827 13.2635C23.6832 13.5471 23.796 13.8189 23.9966 14.0195C24.1971 14.22 24.469 14.3329 24.7526 14.3333ZM5.98732 10.5905C6.51597 10.5905 7.03275 10.7473 7.47231 11.041C7.91187 11.3347 8.25446 11.7522 8.45677 12.2406C8.65907 12.729 8.71201 13.2664 8.60887 13.7849C8.50574 14.3034 8.25117 14.7797 7.87735 15.1535C7.50354 15.5273 7.02727 15.7819 6.50877 15.885C5.99028 15.9882 5.45285 15.9352 4.96444 15.7329C4.47602 15.5306 4.05857 15.188 3.76487 14.7484C3.47117 14.3089 3.3144 13.7921 3.3144 13.2635C3.31486 12.5547 3.59661 11.8751 4.09778 11.3739C4.59895 10.8728 5.27855 10.591 5.98732 10.5905ZM5.98732 14.3333C6.19898 14.3337 6.406 14.2712 6.58216 14.1538C6.75832 14.0365 6.89571 13.8695 6.97695 13.6741C7.05819 13.4786 7.07962 13.2634 7.03853 13.0558C6.99745 12.8482 6.89569 12.6574 6.74614 12.5076C6.59658 12.3578 6.40596 12.2557 6.19838 12.2143C5.9908 12.1729 5.7756 12.194 5.58001 12.2749C5.38442 12.3558 5.21724 12.4929 5.0996 12.6689C4.98197 12.8449 4.91918 13.0518 4.91918 13.2635C4.92008 13.5466 5.03285 13.818 5.23292 14.0184C5.43299 14.2187 5.70415 14.332 5.98732 14.3333ZM12.6362 1.52081H10.4828C9.54492 1.52081 8.86426 1.79341 8.36362 2.61981L6.30621 6.04882H12.6293L12.6362 1.52081Z" fill="#EAF4FF"/>
</g>
<defs>
<clipPath id="clip0_1134_163602">
<rect width="30.7394" height="15.8729" fill="white" transform="translate(0 0.0634766)"/>
</clipPath>
</defs>
</svg>
