<svg width="30" height="20" viewBox="0 0 30 20" fill="none" xmlns="http://www.w3.org/2000/svg">
<g clip-path="url(#clip0_1134_163612)">
<path d="M9.15867 2.31995C9.12998 2.25133 9.08741 2.18938 9.03362 2.13801C8.97983 2.08664 8.91599 2.04696 8.84612 2.02145C8.77625 1.99595 8.70185 1.98518 8.62762 1.98982C8.55338 1.99446 8.4809 2.01441 8.41475 2.04842C5.75497 3.42228 3.59567 5.59925 2.24353 8.27013C2.20995 8.3366 2.19049 8.40929 2.18637 8.48364C2.18225 8.558 2.19357 8.6324 2.2196 8.70216C2.24563 8.77193 2.28583 8.83555 2.33764 8.88903C2.38946 8.94252 2.45178 8.9847 2.52068 9.01292L4.3799 9.77423C4.50407 9.82505 4.64273 9.82774 4.76878 9.78178C4.89483 9.73582 4.99922 9.64451 5.06155 9.5257C6.10201 7.54029 7.71539 5.9136 9.6922 4.85689C9.81069 4.79357 9.90131 4.68834 9.94634 4.56176C9.99137 4.43518 9.98757 4.29637 9.93569 4.17244L9.15867 2.31995Z" fill="#EAF4FF"/>
<path d="M4.24928 11.5083C4.28804 11.3798 4.27757 11.2415 4.2199 11.1204C4.16223 10.9992 4.0615 10.9039 3.93736 10.853L2.07813 10.0917C2.0091 10.0636 1.935 10.05 1.86049 10.0519C1.78598 10.0538 1.71266 10.0711 1.64516 10.1028C1.57766 10.1344 1.51744 10.1796 1.46827 10.2356C1.4191 10.2917 1.38205 10.3573 1.35946 10.4283C0.451028 13.2807 0.463992 16.3468 1.3965 19.1914C1.41981 19.2621 1.45748 19.3272 1.50714 19.3826C1.5568 19.438 1.61739 19.4825 1.68509 19.5134C1.75279 19.5443 1.82614 19.5608 1.90054 19.562C1.97494 19.5631 2.04876 19.5489 2.1174 19.5202L3.96877 18.7437C4.09268 18.6916 4.19273 18.5952 4.24937 18.4733C4.30602 18.3515 4.31519 18.2128 4.2751 18.0845C3.6069 15.9447 3.5979 13.6533 4.24928 11.5083Z" fill="#EAF4FF"/>
<path d="M28.6028 10.3135C28.5796 10.2428 28.542 10.1778 28.4924 10.1224C28.4428 10.067 28.3822 10.0224 28.3145 9.99153C28.2469 9.96066 28.1736 9.94411 28.0992 9.94294C28.0249 9.94176 27.9511 9.95598 27.8825 9.98471L26.0311 10.7612C25.9072 10.8132 25.8072 10.9096 25.7505 11.0315C25.6939 11.1534 25.6847 11.2921 25.7248 11.4204C26.3933 13.5597 26.4029 15.8507 25.7523 17.9955C25.7134 18.124 25.7238 18.2623 25.7815 18.3835C25.8392 18.5047 25.94 18.6 26.0642 18.6508L27.9234 19.4121C27.9925 19.4402 28.0666 19.4537 28.1411 19.4518C28.2156 19.4499 28.2889 19.4326 28.3564 19.401C28.4239 19.3694 28.4841 19.3241 28.5333 19.2681C28.5825 19.2121 28.6195 19.1465 28.6421 19.0755C29.55 16.2232 29.5362 13.1575 28.6028 10.3135Z" fill="#EAF4FF"/>
<path d="M18.2437 4.00099C18.3721 4.04005 18.5104 4.02979 18.6316 3.97219C18.7528 3.9146 18.8482 3.81383 18.899 3.68963L19.6603 1.8304C19.6885 1.76138 19.7021 1.68727 19.7002 1.61273C19.6983 1.53819 19.6811 1.46484 19.6494 1.39732C19.6178 1.3298 19.5725 1.26956 19.5164 1.22041C19.4604 1.17126 19.3947 1.13425 19.3237 1.11174C16.4711 0.202878 13.4047 0.215835 10.56 1.14877C10.4892 1.17199 10.4241 1.20962 10.3687 1.25928C10.3132 1.30894 10.2687 1.36955 10.2379 1.43729C10.207 1.50503 10.1906 1.57843 10.1895 1.65285C10.1885 1.72727 10.2028 1.80109 10.2318 1.86968L11.0082 3.72104C11.0603 3.84481 11.1566 3.94471 11.2784 4.00125C11.4002 4.05779 11.5387 4.0669 11.6669 4.0268C13.807 3.35905 16.0984 3.35005 18.2437 4.00099Z" fill="#EAF4FF"/>
<path d="M27.703 8.166C26.3289 5.50634 24.152 3.34708 21.4812 1.99478C21.4148 1.96129 21.3421 1.9419 21.2677 1.93782C21.1934 1.93375 21.119 1.94507 21.0493 1.9711C20.9796 1.99712 20.9159 2.03727 20.8624 2.08904C20.809 2.14081 20.7667 2.20307 20.7385 2.27193L19.9777 4.13115C19.9269 4.2554 19.9241 4.39415 19.9701 4.52029C20.0161 4.64643 20.1074 4.75092 20.2262 4.81335C22.2115 5.8536 23.838 7.46683 24.8945 9.44345C24.9577 9.56204 25.0629 9.65278 25.1895 9.69791C25.3161 9.74305 25.4549 9.73933 25.5789 9.68749L27.4303 8.91104C27.4992 8.88248 27.5614 8.83994 27.613 8.78611C27.6645 8.73229 27.7044 8.66835 27.73 8.59833C27.7557 8.52831 27.7665 8.45374 27.7618 8.37933C27.7572 8.30491 27.7371 8.23228 27.703 8.166Z" fill="#EAF4FF"/>
<path d="M21.6315 8.18873L14.2591 13.6452C14.059 13.793 13.8937 13.9828 13.7748 14.2013C13.6559 14.4198 13.5862 14.6616 13.5707 14.9099C13.5552 15.1582 13.5942 15.4068 13.685 15.6384C13.7759 15.87 13.9163 16.0789 14.0964 16.2504C14.2766 16.422 14.4921 16.552 14.7278 16.6314C14.9636 16.7108 15.2138 16.7376 15.461 16.71C15.7083 16.6824 15.9464 16.6009 16.1588 16.4715C16.3712 16.342 16.5527 16.1676 16.6906 15.9605L21.7773 8.33067C21.7937 8.31089 21.8019 8.28571 21.8005 8.26011C21.7991 8.23452 21.7882 8.21038 21.7698 8.19251C21.7514 8.17463 21.727 8.16431 21.7014 8.16361C21.6757 8.16291 21.6508 8.17188 21.6315 8.18873Z" fill="#EAF4FF"/>
</g>
<defs>
<clipPath id="clip0_1134_163612">
<rect width="28.6249" height="19.1213" fill="white" transform="translate(0.6875 0.439453)"/>
</clipPath>
</defs>
</svg>
