<svg width="598" height="276" viewBox="0 0 598 276" fill="none" xmlns="http://www.w3.org/2000/svg">
<g clip-path="url(#clip0_3019_141231)">
<path d="M442.66 61.1101C454.18 55.8601 482.31 45.5801 509.97 45.5801C537.63 45.5801 561.37 53.2101 561.37 92.7201V183.58H525.81V95.8901C525.81 77.9801 516.36 72.9501 504.33 72.9501C495.63 72.9501 484.89 74.8101 478.23 78.7401V183.57H442.66V61.1101V61.1101Z" fill="#134FF4"/>
<path d="M304.171 171.83C292.681 177.09 264.531 187.38 236.891 187.38C209.251 187.38 185.471 179.74 185.471 140.24V49.3701H221.031V137.05C221.031 154.96 230.501 159.98 242.521 159.98C251.211 159.98 261.951 158.14 268.601 154.17V49.3701H304.181V171.82L304.171 171.83Z" fill="#134FF4"/>
<path d="M69.33 46.98C59.11 46.98 48.66 49.07 37.55 52.13L43.41 77.42C48.37 76.05 52.95 75.6 57.65 75.6C73.9 75.6 85.58 85.56 85.58 115.75C85.58 139.88 78.48 158.26 50.29 158.26C44.44 158.26 40.11 157.74 35.32 156.42V0H0V178.45C11.2 182.9 35.33 187.37 55.88 187.37C103.89 187.37 122.41 158.51 122.41 110.22C122.41 61.93 99.3 46.97 69.33 46.97" fill="#134FF4"/>
<path d="M311.59 117.24C311.59 65.4998 336.46 46.8398 372.93 46.8398C409.4 46.8398 434 64.9598 434 116.98C434 169 409.61 187.37 371.38 187.37C335.2 187.37 311.59 168.98 311.59 117.24V117.24ZM347 117.24C347 150.6 358.02 159.26 372.67 159.26C387.32 159.26 398.31 150.6 398.31 117.24C398.31 81.7898 387.8 75.2198 372.93 75.2198C358.06 75.2198 347 81.7898 347 117.24Z" fill="#134FF4"/>
<path d="M169.399 0H133.539V183.57H169.399V0Z" fill="#134FF4"/>
<path d="M569.1 211.31C569.1 203.38 575.29 197.19 583.22 197.19C591.15 197.19 597.14 203.38 597.14 211.31C597.14 219.24 590.95 225.43 583.22 225.43C575.49 225.43 569.1 219.24 569.1 211.31Z" fill="#0EDD2D"/>
<path d="M397.15 205.76V265.46H428.05V275.33H384.93V205.76H397.16H397.15Z" fill="#929A9E"/>
<path d="M447.48 216.24H435.25V275.33H447.48V216.24Z" fill="#929A9E"/>
<path d="M467.041 216.24L483.771 264.39L500.501 216.24H513.481L490.961 275.33H476.371L453.961 216.24H467.041V216.24Z" fill="#929A9E"/>
<path d="M532.159 265.34V250.14H553.209V240.17H532.159V226.28H561.159V216.31H532.159V216.28H519.779V275.33H562.449V265.34H532.159Z" fill="#929A9E"/>
</g>
<defs>
<clipPath id="clip0_3019_141231">
<rect width="597.14" height="275.33" fill="white"/>
</clipPath>
</defs>
</svg>
