<svg width="12" height="13" viewBox="0 0 12 13" fill="none" xmlns="http://www.w3.org/2000/svg">
<path d="M11.625 9.2625V11.4725C11.6251 11.6307 11.5651 11.7831 11.4572 11.8989C11.3494 12.0146 11.2016 12.0852 11.0437 12.0963C10.7706 12.115 10.5475 12.125 10.375 12.125C4.85188 12.125 0.375 7.64813 0.375 2.125C0.375 1.9525 0.384375 1.72938 0.40375 1.45625C0.414826 1.2984 0.485363 1.15063 0.601127 1.04276C0.716891 0.934879 0.869264 0.874928 1.0275 0.875H3.2375C3.31502 0.874922 3.38981 0.903662 3.44733 0.955638C3.50485 1.00761 3.541 1.07911 3.54875 1.15625C3.56313 1.3 3.57625 1.41438 3.58875 1.50125C3.71296 2.36808 3.9675 3.21115 4.34375 4.00188C4.40313 4.12688 4.36438 4.27625 4.25187 4.35625L2.90313 5.32C3.72778 7.24153 5.25909 8.77284 7.18062 9.5975L8.14313 8.25125C8.18247 8.19625 8.23986 8.1568 8.30531 8.13978C8.37076 8.12276 8.4401 8.12926 8.50125 8.15812C9.29189 8.53367 10.1347 8.78757 11.0013 8.91125C11.0881 8.92375 11.2025 8.9375 11.345 8.95125C11.422 8.95915 11.4934 8.99536 11.5452 9.05286C11.5971 9.11037 11.6257 9.18507 11.6256 9.2625H11.625Z" fill="#1352FE"/>
</svg>
