<svg width="14" height="13" viewBox="0 0 14 13" fill="none" xmlns="http://www.w3.org/2000/svg">
<path d="M1.375 0.875H12.625C12.7908 0.875 12.9497 0.940848 13.0669 1.05806C13.1842 1.17527 13.25 1.33424 13.25 1.5V11.5C13.25 11.6658 13.1842 11.8247 13.0669 11.9419C12.9497 12.0592 12.7908 12.125 12.625 12.125H1.375C1.20924 12.125 1.05027 12.0592 0.933058 11.9419C0.815848 11.8247 0.75 11.6658 0.75 11.5V1.5C0.75 1.33424 0.815848 1.17527 0.933058 1.05806C1.05027 0.940848 1.20924 0.875 1.375 0.875ZM7.0375 6.30187L3.03 2.89875L2.22063 3.85125L7.04562 7.94813L11.7837 3.84812L10.9663 2.9025L7.03813 6.30187H7.0375Z" fill="#1352FE"/>
</svg>
