<svg width="18" height="15" viewBox="0 0 18 15" fill="none" xmlns="http://www.w3.org/2000/svg">
<path d="M1.50033 0H16.5003C16.7213 0 16.9333 0.0877973 17.0896 0.244078C17.2459 0.400358 17.3337 0.61232 17.3337 0.833333V14.1667C17.3337 14.3877 17.2459 14.5996 17.0896 14.7559C16.9333 14.9122 16.7213 15 16.5003 15H1.50033C1.27931 15 1.06735 14.9122 0.91107 14.7559C0.75479 14.5996 0.666992 14.3877 0.666992 14.1667V0.833333C0.666992 0.61232 0.75479 0.400358 0.91107 0.244078C1.06735 0.0877973 1.27931 0 1.50033 0ZM9.05033 7.23583L3.70699 2.69833L2.62783 3.96833L9.06116 9.43083L15.3787 3.96417L14.2887 2.70333L9.05116 7.23583H9.05033Z" fill="white"/>
</svg>
