<svg width="532" height="276" viewBox="0 0 532 276" fill="none" xmlns="http://www.w3.org/2000/svg">
<g clip-path="url(#clip0_3019_141209)">
<path d="M451.754 229.355C451.754 206.873 469.308 189.319 491.798 189.319C514.288 189.319 531.283 206.873 531.283 229.355C531.283 251.837 513.73 269.391 491.798 269.391C469.866 269.391 451.754 251.845 451.754 229.355Z" fill="#0EDD2D"/>
<path d="M412.762 56.9815C423.506 52.0941 449.742 42.5 475.526 42.5C501.31 42.5 523.447 49.6135 523.447 86.4539V171.175H490.295V89.4192C490.295 72.7198 481.49 68.0296 470.269 68.0296C462.162 68.0296 452.14 69.771 445.939 73.4345V171.183H412.77V56.9815H412.762Z" fill="#134FF4"/>
<path d="M283.627 160.217C272.908 165.121 246.663 174.715 220.896 174.715C195.128 174.715 172.941 167.585 172.941 130.761V46.04H206.102V127.795C206.102 144.495 214.932 149.177 226.136 149.177C234.244 149.177 244.257 147.468 250.45 143.764V46.04H283.619V160.217H283.627Z" fill="#134FF4"/>
<path d="M64.6453 43.806C55.1169 43.806 45.3667 45.7528 35.0169 48.6031L40.4875 72.1859C45.1203 70.9127 49.3834 70.4856 53.7616 70.4856C68.9167 70.4856 79.8087 79.7676 79.8087 107.926C79.8087 130.432 73.188 147.567 46.9028 147.567C41.4486 147.567 37.4154 147.091 32.9387 145.85V0H0V166.402C10.4402 170.559 32.9469 174.715 52.1023 174.715C96.8694 174.715 114.144 147.805 114.144 102.775C114.144 57.7455 92.5981 43.806 64.6453 43.806" fill="#134FF4"/>
<path d="M290.543 109.322C290.543 61.072 313.74 43.6826 347.746 43.6826C381.753 43.6826 404.687 60.5791 404.687 109.084C404.687 157.588 381.95 174.723 346.301 174.723C312.565 174.723 290.543 157.572 290.543 109.33V109.322ZM323.564 109.33C323.564 140.437 333.848 148.512 347.5 148.512C361.152 148.512 371.411 140.437 371.411 109.33C371.411 76.2681 361.612 70.1486 347.746 70.1486C333.881 70.1486 323.564 76.2681 323.564 109.33Z" fill="#134FF4"/>
<path d="M157.957 0H124.518V171.175H157.957V0Z" fill="#134FF4"/>
<path d="M114.513 218.784C114.883 219.572 115.557 220.32 116.542 221.002C117.52 221.692 118.875 222.324 120.592 222.907C122.317 223.49 124.502 224.098 127.147 224.731C130.063 225.47 132.642 226.291 134.893 227.187C137.143 228.082 139.008 229.183 140.495 230.472C141.982 231.77 143.107 233.273 143.871 234.99C144.635 236.707 145.021 238.728 145.021 241.052C145.021 243.697 144.536 246.046 143.567 248.108C142.598 250.17 141.251 251.911 139.517 253.341C137.784 254.77 135.714 255.854 133.283 256.593C130.851 257.333 128.19 257.702 125.282 257.702C121.003 257.702 116.904 256.979 112.994 255.526C109.084 254.072 105.461 251.837 102.135 248.831L108 241.857C110.694 244.182 113.413 245.964 116.165 247.205C118.908 248.445 122.029 249.069 125.52 249.069C128.535 249.069 130.925 248.437 132.691 247.164C134.457 245.899 135.345 244.182 135.345 242.013C135.345 241.011 135.172 240.116 134.827 239.319C134.482 238.531 133.85 237.799 132.921 237.142C131.993 236.485 130.72 235.861 129.11 235.278C127.492 234.695 125.389 234.087 122.793 233.454C119.828 232.772 117.191 232 114.891 231.154C112.583 230.308 110.653 229.249 109.092 227.984C107.531 226.719 106.34 225.183 105.519 223.384C104.698 221.585 104.287 219.392 104.287 216.804C104.287 214.373 104.755 212.171 105.7 210.184C106.644 208.196 107.942 206.495 109.593 205.074C111.244 203.645 113.232 202.553 115.548 201.789C117.865 201.025 120.403 200.639 123.147 200.639C127.213 200.639 130.876 201.23 134.121 202.421C137.373 203.612 140.421 205.345 143.279 207.612L138.047 214.981C135.509 213.132 133.004 211.72 130.515 210.742C128.034 209.765 125.52 209.28 122.982 209.28C120.132 209.28 117.914 209.929 116.329 211.219C114.743 212.516 113.955 214.085 113.955 215.933C113.955 217.042 114.136 217.995 114.513 218.784V218.784Z" fill="#91999D"/>
<path d="M197.576 210.224H166.19V224.492H194.011V233.289H166.19V248.108H197.97V256.905H156.521V201.427H197.576V210.224V210.224Z" fill="#91999D"/>
<path d="M262.722 256.905H252.421L246.795 243.508H220.559L214.85 256.905H204.861L229.274 201.024H238.309L262.722 256.905V256.905ZM233.635 212.68L224.124 234.875H243.221L233.627 212.68H233.635Z" fill="#91999D"/>
<path d="M307.826 256.905L294.149 237.569H281.91V256.905H272.242V201.427H296.967C300.137 201.427 303.004 201.837 305.567 202.659C308.13 203.48 310.298 204.638 312.064 206.15C313.839 207.653 315.194 209.509 316.147 211.694C317.1 213.888 317.576 216.327 317.576 219.03C317.576 221.354 317.247 223.432 316.582 225.248C315.925 227.071 315.013 228.681 313.847 230.086C312.68 231.482 311.292 232.673 309.682 233.651C308.072 234.628 306.29 235.384 304.335 235.91L319.317 256.913H307.826V256.905ZM304.647 212.573C302.635 211.004 299.801 210.224 296.137 210.224H281.91V228.928H296.219C299.719 228.928 302.495 228.082 304.565 226.381C306.635 224.681 307.662 222.397 307.662 219.539C307.662 216.459 306.651 214.142 304.639 212.573H304.647Z" fill="#91999D"/>
<path d="M373.325 252.108C371.764 253.299 370.088 254.326 368.289 255.197C366.49 256.067 364.527 256.733 362.383 257.176C360.239 257.628 357.874 257.85 355.286 257.85C351.22 257.85 347.466 257.111 344.033 255.632C340.599 254.153 337.626 252.133 335.112 249.57C332.599 247.007 330.636 243.984 329.206 240.493C327.777 237.002 327.062 233.257 327.062 229.24C327.062 225.223 327.761 221.552 329.165 218.061C330.562 214.578 332.533 211.522 335.071 208.91C337.609 206.298 340.616 204.236 344.107 202.725C347.598 201.222 351.45 200.466 355.681 200.466C358.219 200.466 360.527 200.679 362.613 201.098C364.7 201.525 366.614 202.117 368.363 202.881C370.105 203.645 371.715 204.556 373.201 205.616C374.68 206.676 376.085 207.834 377.399 209.107L371.14 216.319C368.922 214.257 366.564 212.59 364.084 211.325C361.603 210.06 358.769 209.419 355.607 209.419C352.962 209.419 350.522 209.937 348.271 210.963C346.029 211.99 344.082 213.395 342.448 215.161C340.813 216.935 339.54 219.005 338.644 221.379C337.749 223.753 337.297 226.324 337.297 229.067C337.297 231.811 337.749 234.39 338.644 236.797C339.54 239.204 340.813 241.307 342.448 243.097C344.082 244.896 346.029 246.309 348.271 247.336C350.514 248.362 352.962 248.88 355.607 248.88C358.991 248.88 361.89 248.231 364.322 246.941C366.753 245.644 369.16 243.894 371.534 241.668L377.793 248.009C376.364 249.545 374.869 250.901 373.316 252.092L373.325 252.108Z" fill="#91999D"/>
<path d="M397.695 233.528V256.905H388.027V201.427H397.695V224.492H424.326V201.427H433.994V256.905H424.326V233.528H397.695Z" fill="#91999D"/>
<path d="M467.533 229.356C467.533 215.794 478.121 205.206 491.683 205.206C505.244 205.206 515.504 215.794 515.504 229.356C515.504 242.917 504.916 253.505 491.683 253.505C478.45 253.505 467.533 242.917 467.533 229.356Z" fill="white"/>
<path d="M476.707 229.355C476.707 220.985 483.246 214.446 491.616 214.446C499.986 214.446 506.319 220.985 506.319 229.355C506.319 237.725 499.781 244.264 491.616 244.264C483.451 244.264 476.707 237.733 476.707 229.355Z" fill="#0EDD2D"/>
<path d="M516.696 252.35C514.885 250.169 511.648 249.869 509.467 251.681C507.286 253.492 506.986 256.729 508.798 258.91L520.884 273.463C522.695 275.644 525.932 275.944 528.113 274.132C530.294 272.321 530.594 269.084 528.783 266.903L516.696 252.35Z" fill="white"/>
<path d="M507.398 243.626C506.143 242.115 503.902 241.906 502.393 243.16C500.884 244.414 500.678 246.655 501.933 248.166L516.034 265.145C517.289 266.656 519.53 266.865 521.039 265.611C522.549 264.358 522.755 262.117 521.5 260.606L507.398 243.626Z" fill="white"/>
</g>
<defs>
<clipPath id="clip0_3019_141209">
<rect width="531.283" height="275.33" fill="white"/>
</clipPath>
</defs>
</svg>
