<svg width="16" height="15" viewBox="0 0 16 15" fill="none" xmlns="http://www.w3.org/2000/svg">
<path opacity="0.5" d="M15.5 11.1833V14.13C15.5001 14.341 15.4202 14.5441 15.2763 14.6985C15.1325 14.8528 14.9355 14.9469 14.725 14.9617C14.3608 14.9867 14.0633 15 13.8333 15C6.46917 15 0.5 9.03083 0.5 1.66667C0.5 1.43667 0.5125 1.13917 0.538333 0.775C0.553102 0.564537 0.647151 0.367509 0.801503 0.223674C0.955855 0.079839 1.15902 -9.53609e-05 1.37 2.13816e-07H4.31667C4.42003 -0.000104445 4.51975 0.0382159 4.59644 0.107517C4.67313 0.176818 4.72133 0.272152 4.73167 0.375C4.75083 0.566667 4.76833 0.719167 4.785 0.835C4.95061 1.99077 5.29 3.11486 5.79167 4.16917C5.87083 4.33583 5.81917 4.535 5.66917 4.64167L3.87083 5.92667C4.97038 8.48871 7.01212 10.5305 9.57417 11.63L10.8575 9.835C10.91 9.76167 10.9865 9.70907 11.0737 9.68638C11.161 9.66369 11.2535 9.67234 11.335 9.71083C12.3892 10.2116 13.513 10.5501 14.6683 10.715C14.7842 10.7317 14.9367 10.75 15.1267 10.7683C15.2294 10.7789 15.3245 10.8271 15.3936 10.9038C15.4628 10.9805 15.501 11.0801 15.5008 11.1833H15.5Z" fill="white"/>
</svg>
