<svg width="287" height="287" viewBox="0 0 287 287" fill="none" xmlns="http://www.w3.org/2000/svg">
<rect width="287" height="287" rx="64.9705" fill="url(#paint0_linear_4159_70310)"/>
<path d="M205.939 131.232C210.389 129.256 221.248 125.378 231.925 125.378C242.201 125.378 251.771 128.255 251.771 143.155V177.419H238.04V144.349C238.04 137.597 234.395 135.699 229.749 135.699C226.391 135.699 222.244 136.4 219.673 137.883V177.414H205.939V131.238V131.232ZM152.468 172.989C148.032 174.971 137.162 178.849 126.493 178.849C116.22 178.849 106.64 175.967 106.64 161.072V126.808H120.367V159.872C120.367 166.627 124.023 168.522 128.666 168.522C132.023 168.522 136.167 167.83 138.732 166.332V126.808H152.471V172.983L152.468 172.989ZM61.7954 125.905C57.8504 125.905 53.8129 126.69 49.5287 127.845L51.7914 137.382C53.5838 136.906 55.4324 136.675 57.2868 136.695C63.5618 136.695 68.0731 140.449 68.0731 151.836C68.0731 160.938 65.3338 167.866 54.4466 167.866C52.1895 167.866 50.5184 167.67 48.6679 167.171V108.189H35.0273V175.485C39.3508 177.167 48.6679 178.849 56.6027 178.849C75.1359 178.849 82.2913 167.97 82.2913 149.755C82.2913 131.939 73.3695 125.905 61.7954 125.905ZM155.333 152.402C155.333 132.887 164.936 125.854 179.02 125.854C193.684 125.854 202.597 132.688 202.597 152.304C202.597 171.719 193.182 178.849 178.42 178.849C164.451 178.849 155.333 171.915 155.333 152.402ZM169.005 152.402C169.005 164.984 173.264 168.248 178.916 168.248C184.659 168.248 188.817 164.984 188.817 152.402C188.817 139.033 184.759 136.554 179.02 136.554C173.264 136.554 169.005 139.033 169.005 152.402" fill="white"/>
<path d="M86.6328 108.189H100.394V177.526H86.6328V108.189Z" fill="white"/>
<defs>
<linearGradient id="paint0_linear_4159_70310" x1="245.899" y1="11.7229" x2="35.4513" y2="271.04" gradientUnits="userSpaceOnUse">
<stop stop-color="#068DE6"/>
<stop offset="1" stop-color="#3528E3"/>
</linearGradient>
</defs>
</svg>
