<svg width="102" height="31" viewBox="0 0 102 31" fill="none" xmlns="http://www.w3.org/2000/svg">
<path d="M70.1746 11.0593C72.0016 10.2477 76.4602 8.65558 80.844 8.65558C85.0632 8.65558 88.9923 9.83672 88.9923 15.9543V30.0221H83.3548V16.4447C83.3548 13.6726 81.8583 12.8932 79.9507 12.8932C78.5715 12.8932 76.8689 13.181 75.8132 13.79V30.0198H70.1746V11.0616V11.0593ZM48.2198 28.2032C46.3986 29.0171 41.9353 30.6092 37.5549 30.6092C33.3369 30.6092 29.4032 29.4258 29.4032 23.3105V9.2427H35.0395V22.8178C35.0395 25.5911 36.5407 26.3693 38.4471 26.3693C39.8251 26.3693 41.5266 26.085 42.58 25.4702V9.2427H48.2209V28.2009L48.2198 28.2032ZM10.9906 8.872C9.37089 8.872 7.71314 9.19435 5.95408 9.66865L6.88311 13.5839C7.61908 13.3886 8.37809 13.2937 9.13949 13.3019C11.7159 13.3019 13.5682 14.8434 13.5682 19.5184C13.5682 23.2553 12.4435 26.0999 7.97331 26.0999C7.04658 26.0999 6.36046 26.0193 5.60066 25.8144V1.59863H0V29.2278C1.77517 29.9185 5.60066 30.6092 8.8586 30.6092C16.4681 30.6092 19.406 26.1425 19.406 18.6642C19.406 11.3494 15.7429 8.872 10.9906 8.872ZM49.3963 19.751C49.3963 11.7385 53.3392 8.85128 59.1218 8.85128C65.1426 8.85128 68.8023 11.6568 68.8023 19.7107C68.8023 27.6817 64.9366 30.6092 58.8754 30.6092C53.1401 30.6092 49.3963 27.7623 49.3963 19.751ZM55.0096 19.751C55.0096 24.9165 56.7583 26.2565 59.0792 26.2565C61.4369 26.2565 63.1441 24.9165 63.1441 19.751C63.1441 14.262 61.4783 13.2443 59.1218 13.2443C56.7583 13.2443 55.0096 14.262 55.0096 19.751" fill="white"/>
<path d="M21.1699 1.59863H26.8546V30.021H21.1699V1.59863Z" fill="white"/>
<path d="M94.2488 12.303C97.2728 12.303 99.6728 9.97497 99.6728 6.97497C99.6728 4.02297 97.3208 1.64697 94.2488 1.64697C91.2008 1.64697 88.8008 4.04697 88.8008 6.99897C88.8008 9.99897 91.2248 12.303 94.2488 12.303ZM94.2488 11.391C91.7768 11.391 89.8328 9.63897 89.8328 6.99897C89.8328 4.38297 91.6808 2.55897 94.2488 2.55897C96.8168 2.55897 98.6648 4.35897 98.6648 6.97497C98.6648 9.59097 96.7448 11.391 94.2488 11.391ZM92.2808 9.54297H93.7688V7.64697H94.1528L95.2328 9.54297H96.7688L95.4968 7.38297C96.0488 7.14297 96.4568 6.73497 96.4568 5.96697V5.94297C96.4568 4.83897 95.6888 4.28697 94.3208 4.28697H92.2808V9.54297ZM93.7688 6.68697V5.41497H94.2488C94.7288 5.41497 95.0168 5.58297 95.0168 6.01497V6.03897C95.0168 6.47097 94.7528 6.68697 94.2488 6.68697H93.7688Z" fill="white"/>
</svg>
