<svg width="85" height="26" viewBox="0 0 85 26" fill="none" xmlns="http://www.w3.org/2000/svg">
<path d="M58.4788 9.34386C60.0013 8.66752 63.7168 7.34075 67.37 7.34075C70.886 7.34075 74.1603 8.32504 74.1603 13.423V25.1462H69.4624V13.8317C69.4624 11.5216 68.2152 10.8721 66.6256 10.8721C65.4763 10.8721 64.0574 11.1119 63.1777 11.6194V25.1443H58.4788V9.34578V9.34386ZM40.1831 23.6304C38.6655 24.3087 34.9461 25.6355 31.2958 25.6355C27.7807 25.6355 24.5026 24.6493 24.5026 19.5532V7.83001H29.1996V19.1426C29.1996 21.4537 30.4506 22.1022 32.0393 22.1022C33.1876 22.1022 34.6055 21.8652 35.4833 21.3529V7.83001H40.1841V23.6285L40.1831 23.6304ZM9.15887 7.5211C7.80907 7.5211 6.42761 7.78972 4.96173 8.18497L5.73593 11.4477C6.34923 11.2849 6.98174 11.2059 7.61624 11.2127C9.76326 11.2127 11.3068 12.4972 11.3068 16.3931C11.3068 19.5072 10.3696 21.8777 6.64443 21.8777C5.87215 21.8777 5.30038 21.8106 4.66722 21.6398V1.45996H0V24.4842C1.47931 25.0599 4.66722 25.6355 7.38216 25.6355C13.7234 25.6355 16.1717 21.9132 16.1717 15.6813C16.1717 9.58562 13.119 7.5211 9.15887 7.5211ZM41.1636 16.5869C41.1636 9.90987 44.4493 7.50384 49.2681 7.50384C54.2855 7.50384 57.3353 9.84176 57.3353 16.5533C57.3353 23.1958 54.1138 25.6355 49.0628 25.6355C44.2834 25.6355 41.1636 23.263 41.1636 16.5869ZM45.8414 16.5869C45.8414 20.8915 47.2986 22.0082 49.2326 22.0082C51.1974 22.0082 52.6201 20.8915 52.6201 16.5869C52.6201 12.0128 51.2319 11.1647 49.2681 11.1647C47.2986 11.1647 45.8414 12.0128 45.8414 16.5869Z" fill="white"></path>
<path d="M17.6416 1.45996H22.3788V25.1452H17.6416V1.45996Z" fill="white"></path>
<path d="M78.54 10.38C81.06 10.38 83.06 8.44 83.06 5.94C83.06 3.48 81.1 1.5 78.54 1.5C76 1.5 74 3.5 74 5.96C74 8.46 76.02 10.38 78.54 10.38ZM78.54 9.62C76.48 9.62 74.86 8.16 74.86 5.96C74.86 3.78 76.4 2.26 78.54 2.26C80.68 2.26 82.22 3.76 82.22 5.94C82.22 8.12 80.62 9.62 78.54 9.62ZM76.9 8.08H78.14V6.5H78.46L79.36 8.08H80.64L79.58 6.28C80.04 6.08 80.38 5.74 80.38 5.1V5.08C80.38 4.16 79.74 3.7 78.6 3.7H76.9V8.08ZM78.14 5.7V4.64H78.54C78.94 4.64 79.18 4.78 79.18 5.14V5.16C79.18 5.52 78.96 5.7 78.54 5.7H78.14Z" fill="white"></path>
</svg>